<svg aria-roledescription="flowchart-v2" role="graphics-document document" viewBox="-8 -8 1044.751953125 2328" style="max-width: 1044.751953125px;" xmlns:xlink="http://www.w3.org/1999/xlink" xmlns="http://www.w3.org/2000/svg" width="100%" id="mermaid-1753115849439"><style>#mermaid-1753115849439{font-family:"trebuchet ms",verdana,arial,sans-serif;font-size:16px;fill:#333;}#mermaid-1753115849439 .error-icon{fill:#552222;}#mermaid-1753115849439 .error-text{fill:#552222;stroke:#552222;}#mermaid-1753115849439 .edge-thickness-normal{stroke-width:2px;}#mermaid-1753115849439 .edge-thickness-thick{stroke-width:3.5px;}#mermaid-1753115849439 .edge-pattern-solid{stroke-dasharray:0;}#mermaid-1753115849439 .edge-pattern-dashed{stroke-dasharray:3;}#mermaid-1753115849439 .edge-pattern-dotted{stroke-dasharray:2;}#mermaid-1753115849439 .marker{fill:#333333;stroke:#333333;}#mermaid-1753115849439 .marker.cross{stroke:#333333;}#mermaid-1753115849439 svg{font-family:"trebuchet ms",verdana,arial,sans-serif;font-size:16px;}#mermaid-1753115849439 .label{font-family:"trebuchet ms",verdana,arial,sans-serif;color:#333;}#mermaid-1753115849439 .cluster-label text{fill:#333;}#mermaid-1753115849439 .cluster-label span,#mermaid-1753115849439 p{color:#333;}#mermaid-1753115849439 .label text,#mermaid-1753115849439 span,#mermaid-1753115849439 p{fill:#333;color:#333;}#mermaid-1753115849439 .node rect,#mermaid-1753115849439 .node circle,#mermaid-1753115849439 .node ellipse,#mermaid-1753115849439 .node polygon,#mermaid-1753115849439 .node path{fill:#ECECFF;stroke:#9370DB;stroke-width:1px;}#mermaid-1753115849439 .flowchart-label text{text-anchor:middle;}#mermaid-1753115849439 .node .label{text-align:center;}#mermaid-1753115849439 .node.clickable{cursor:pointer;}#mermaid-1753115849439 .arrowheadPath{fill:#333333;}#mermaid-1753115849439 .edgePath .path{stroke:#333333;stroke-width:2.0px;}#mermaid-1753115849439 .flowchart-link{stroke:#333333;fill:none;}#mermaid-1753115849439 .edgeLabel{background-color:#e8e8e8;text-align:center;}#mermaid-1753115849439 .edgeLabel rect{opacity:0.5;background-color:#e8e8e8;fill:#e8e8e8;}#mermaid-1753115849439 .labelBkg{background-color:rgba(232, 232, 232, 0.5);}#mermaid-1753115849439 .cluster rect{fill:#ffffde;stroke:#aaaa33;stroke-width:1px;}#mermaid-1753115849439 .cluster text{fill:#333;}#mermaid-1753115849439 .cluster span,#mermaid-1753115849439 p{color:#333;}#mermaid-1753115849439 div.mermaidTooltip{position:absolute;text-align:center;max-width:200px;padding:2px;font-family:"trebuchet ms",verdana,arial,sans-serif;font-size:12px;background:hsl(80, 100%, 96.2745098039%);border:1px solid #aaaa33;border-radius:2px;pointer-events:none;z-index:100;}#mermaid-1753115849439 .flowchartTitleText{text-anchor:middle;font-size:18px;fill:#333;}#mermaid-1753115849439 :root{--mermaid-font-family:"trebuchet ms",verdana,arial,sans-serif;}#mermaid-1753115849439 .inputClass&gt;*{fill:#e1f5fe!important;}#mermaid-1753115849439 .inputClass span{fill:#e1f5fe!important;}#mermaid-1753115849439 .sageClass&gt;*{fill:#f3e5f5!important;}#mermaid-1753115849439 .sageClass span{fill:#f3e5f5!important;}#mermaid-1753115849439 .detailClass&gt;*{fill:#fff3e0!important;}#mermaid-1753115849439 .detailClass span{fill:#fff3e0!important;}#mermaid-1753115849439 .edgeClass&gt;*{fill:#e8f5e8!important;}#mermaid-1753115849439 .edgeClass span{fill:#e8f5e8!important;}#mermaid-1753115849439 .trainClass&gt;*{fill:#ffebee!important;}#mermaid-1753115849439 .trainClass span{fill:#ffebee!important;}</style><g><marker orient="auto" markerHeight="12" markerWidth="12" markerUnits="userSpaceOnUse" refY="5" refX="6" viewBox="0 0 10 10" class="marker flowchart" id="mermaid-1753115849439_flowchart-pointEnd"><path style="stroke-width: 1; stroke-dasharray: 1, 0;" class="arrowMarkerPath" d="M 0 0 L 10 5 L 0 10 z"/></marker><marker orient="auto" markerHeight="12" markerWidth="12" markerUnits="userSpaceOnUse" refY="5" refX="4.5" viewBox="0 0 10 10" class="marker flowchart" id="mermaid-1753115849439_flowchart-pointStart"><path style="stroke-width: 1; stroke-dasharray: 1, 0;" class="arrowMarkerPath" d="M 0 5 L 10 10 L 10 0 z"/></marker><marker orient="auto" markerHeight="11" markerWidth="11" markerUnits="userSpaceOnUse" refY="5" refX="11" viewBox="0 0 10 10" class="marker flowchart" id="mermaid-1753115849439_flowchart-circleEnd"><circle style="stroke-width: 1; stroke-dasharray: 1, 0;" class="arrowMarkerPath" r="5" cy="5" cx="5"/></marker><marker orient="auto" markerHeight="11" markerWidth="11" markerUnits="userSpaceOnUse" refY="5" refX="-1" viewBox="0 0 10 10" class="marker flowchart" id="mermaid-1753115849439_flowchart-circleStart"><circle style="stroke-width: 1; stroke-dasharray: 1, 0;" class="arrowMarkerPath" r="5" cy="5" cx="5"/></marker><marker orient="auto" markerHeight="11" markerWidth="11" markerUnits="userSpaceOnUse" refY="5.2" refX="12" viewBox="0 0 11 11" class="marker cross flowchart" id="mermaid-1753115849439_flowchart-crossEnd"><path style="stroke-width: 2; stroke-dasharray: 1, 0;" class="arrowMarkerPath" d="M 1,1 l 9,9 M 10,1 l -9,9"/></marker><marker orient="auto" markerHeight="11" markerWidth="11" markerUnits="userSpaceOnUse" refY="5.2" refX="-1" viewBox="0 0 11 11" class="marker cross flowchart" id="mermaid-1753115849439_flowchart-crossStart"><path style="stroke-width: 2; stroke-dasharray: 1, 0;" class="arrowMarkerPath" d="M 1,1 l 9,9 M 10,1 l -9,9"/></marker><g class="root"><g class="clusters"><g id="Training" class="cluster default flowchart-label"><rect height="396" width="455.03125" y="0" x="564.1015625" ry="0" rx="0" style=""/><g transform="translate(734.51953125, 0)" class="cluster-label"><foreignObject height="18.5" width="114.1953125"><div style="display: inline-block; white-space: nowrap;" xmlns="http://www.w3.org/1999/xhtml"><span class="nodeLabel">Training Process</span></div></foreignObject></g></g><g id="EdgeReg" class="cluster default flowchart-label"><rect height="884" width="722.791015625" y="1428" x="305.9609375" ry="0" rx="0" style=""/><g transform="translate(589.5517578125, 1428)" class="cluster-label"><foreignObject height="18.5" width="155.609375"><div style="display: inline-block; white-space: nowrap;" xmlns="http://www.w3.org/1999/xhtml"><span class="nodeLabel">Edge Regression Head</span></div></foreignObject></g></g><g id="Detail" class="cluster default flowchart-label"><rect height="408" width="232.53125" y="573.5" x="712.1015625" ry="0" rx="0" style=""/><g transform="translate(769.04296875, 573.5)" class="cluster-label"><foreignObject height="18.5" width="118.6484375"><div style="display: inline-block; white-space: nowrap;" xmlns="http://www.w3.org/1999/xhtml"><span class="nodeLabel">SAGEConv Detail</span></div></foreignObject></g></g><g id="Encoder" class="cluster default flowchart-label"><rect height="932" width="651.279296875" y="446" x="40.822265625" ry="0" rx="0" style=""/><g transform="translate(295.3994140625, 446)" class="cluster-label"><foreignObject height="18.5" width="142.125"><div style="display: inline-block; white-space: nowrap;" xmlns="http://www.w3.org/1999/xhtml"><span class="nodeLabel">GraphSAGE Encoder</span></div></foreignObject></g></g><g id="Input" class="cluster default flowchart-label"><rect height="102" width="544.1015625" y="294" x="0" ry="0" rx="0" style=""/><g transform="translate(234.55859375, 294)" class="cluster-label"><foreignObject height="18.5" width="74.984375"><div style="display: inline-block; white-space: nowrap;" xmlns="http://www.w3.org/1999/xhtml"><span class="nodeLabel">Input Data</span></div></foreignObject></g></g></g><g class="edgePaths"><path marker-end="url(#mermaid-1753115849439_flowchart-pointEnd)" style="fill:none;" class="edge-thickness-normal edge-pattern-solid flowchart-link LS-A LE-D" id="L-A-D-0" d="M121.645,371L121.645,375.167C121.645,379.333,121.645,387.667,121.645,396C121.645,404.333,121.645,412.667,121.645,421C121.645,429.333,121.645,437.667,148.647,447.043C175.649,456.419,229.654,466.838,256.657,472.048L283.659,477.257"/><path marker-end="url(#mermaid-1753115849439_flowchart-pointEnd)" style="fill:none;" class="edge-thickness-normal edge-pattern-solid flowchart-link LS-B LE-D" id="L-B-D-0" d="M312.082,371L312.082,375.167C312.082,379.333,312.082,387.667,312.082,396C312.082,404.333,312.082,412.667,312.082,421C312.082,429.333,312.082,437.667,317.466,445.503C322.85,453.338,333.619,460.677,339.003,464.346L344.387,468.015"/><path marker-end="url(#mermaid-1753115849439_flowchart-pointEnd)" style="fill:none;" class="edge-thickness-normal edge-pattern-solid flowchart-link LS-C LE-D" id="L-C-D-0" d="M462.488,371L462.488,375.167C462.488,379.333,462.488,387.667,462.488,396C462.488,404.333,462.488,412.667,462.488,421C462.488,429.333,462.488,437.667,457.104,445.503C451.72,453.338,440.952,460.677,435.568,464.346L430.184,468.015"/><path marker-end="url(#mermaid-1753115849439_flowchart-pointEnd)" style="fill:none;" class="edge-thickness-normal edge-pattern-solid flowchart-link LS-D LE-E" id="L-D-E-0" d="M288.863,516.131L260.74,521.525C232.617,526.92,176.371,537.71,148.248,547.272C120.125,556.833,120.125,565.167,120.125,577.833C120.125,590.5,120.125,607.5,120.125,624.5C120.125,641.5,120.125,658.5,120.125,675.5C120.125,692.5,120.125,709.5,120.125,726.5C120.125,743.5,120.125,760.5,120.125,777.5C120.125,794.5,120.125,811.5,120.125,828.5C120.125,845.5,120.125,862.5,120.125,879.5C120.125,896.5,120.125,913.5,120.125,930.5C120.125,947.5,120.125,964.5,120.125,977.167C120.125,989.833,120.125,998.167,162.104,1007.939C204.084,1017.711,288.042,1028.922,330.021,1034.527L372.001,1040.133"/><path marker-end="url(#mermaid-1753115849439_flowchart-pointEnd)" style="fill:none;" class="edge-thickness-normal edge-pattern-solid flowchart-link LS-E LE-F" id="L-E-F-0" d="M432.789,1065L432.789,1069.167C432.789,1073.333,432.789,1081.667,432.789,1089.117C432.789,1096.567,432.789,1103.133,432.789,1106.417L432.789,1109.7"/><path marker-end="url(#mermaid-1753115849439_flowchart-pointEnd)" style="fill:none;" class="edge-thickness-normal edge-pattern-solid flowchart-link LS-F LE-G" id="L-F-G-0" d="M432.789,1148.5L432.789,1152.667C432.789,1156.833,432.789,1165.167,432.789,1172.617C432.789,1180.067,432.789,1186.633,432.789,1189.917L432.789,1193.2"/><path marker-end="url(#mermaid-1753115849439_flowchart-pointEnd)" style="fill:none;" class="edge-thickness-normal edge-pattern-solid flowchart-link LS-G LE-H" id="L-G-H-0" d="M432.789,1250.5L432.789,1254.667C432.789,1258.833,432.789,1267.167,432.789,1274.617C432.789,1282.067,432.789,1288.633,432.789,1291.917L432.789,1295.2"/><path marker-end="url(#mermaid-1753115849439_flowchart-pointEnd)" style="fill:none;" class="edge-thickness-normal edge-pattern-solid flowchart-link LS-H LE-M" id="L-H-M-0" d="M432.789,1353L432.789,1357.167C432.789,1361.333,432.789,1369.667,432.789,1378C432.789,1386.333,432.789,1394.667,432.789,1403C432.789,1411.333,432.789,1419.667,432.789,1427.117C432.789,1434.567,432.789,1441.133,432.789,1444.417L432.789,1447.7"/><path marker-end="url(#mermaid-1753115849439_flowchart-pointEnd)" style="fill:none;stroke-width:2px;stroke-dasharray:3;" class="edge-thickness-normal edge-pattern-dotted flowchart-link LS-D LE-I" id="L-D-I-0" d="M485.707,519.363L507.321,524.219C528.935,529.075,572.163,538.788,593.777,547.811C615.391,556.833,615.391,565.167,638.192,574.793C660.993,584.42,706.595,595.34,729.396,600.8L752.197,606.26"/><path marker-end="url(#mermaid-1753115849439_flowchart-pointEnd)" style="fill:none;" class="edge-thickness-normal edge-pattern-solid flowchart-link LS-I LE-J" id="L-I-J-0" d="M828.367,650.5L828.367,654.667C828.367,658.833,828.367,667.167,828.367,674.617C828.367,682.067,828.367,688.633,828.367,691.917L828.367,695.2"/><path marker-end="url(#mermaid-1753115849439_flowchart-pointEnd)" style="fill:none;" class="edge-thickness-normal edge-pattern-solid flowchart-link LS-J LE-K" id="L-J-K-0" d="M828.367,752.5L828.367,756.667C828.367,760.833,828.367,769.167,828.367,776.617C828.367,784.067,828.367,790.633,828.367,793.917L828.367,797.2"/><path marker-end="url(#mermaid-1753115849439_flowchart-pointEnd)" style="fill:none;" class="edge-thickness-normal edge-pattern-solid flowchart-link LS-K LE-L" id="L-K-L-0" d="M828.367,854.5L828.367,858.667C828.367,862.833,828.367,871.167,828.367,878.617C828.367,886.067,828.367,892.633,828.367,895.917L828.367,899.2"/><path marker-end="url(#mermaid-1753115849439_flowchart-pointEnd)" style="fill:none;stroke-width:2px;stroke-dasharray:3;" class="edge-thickness-normal edge-pattern-dotted flowchart-link LS-L LE-E" id="L-L-E-0" d="M828.367,956.5L828.367,960.667C828.367,964.833,828.367,973.167,792.439,981.5C756.511,989.833,684.655,998.167,628.842,1006.945C573.028,1015.724,533.258,1024.948,513.372,1029.56L493.487,1034.172"/><path marker-end="url(#mermaid-1753115849439_flowchart-pointEnd)" style="fill:none;" class="edge-thickness-normal edge-pattern-solid flowchart-link LS-M LE-N" id="L-M-N-0" d="M432.789,1505L432.789,1509.167C432.789,1513.333,432.789,1521.667,432.789,1529.117C432.789,1536.567,432.789,1543.133,432.789,1546.417L432.789,1549.7"/><path marker-end="url(#mermaid-1753115849439_flowchart-pointEnd)" style="fill:none;" class="edge-thickness-normal edge-pattern-solid flowchart-link LS-N LE-O" id="L-N-O-0" d="M432.789,1607L432.789,1611.167C432.789,1615.333,432.789,1623.667,432.789,1631.117C432.789,1638.567,432.789,1645.133,432.789,1648.417L432.789,1651.7"/><path marker-end="url(#mermaid-1753115849439_flowchart-pointEnd)" style="fill:none;" class="edge-thickness-normal edge-pattern-solid flowchart-link LS-O LE-P" id="L-O-P-0" d="M432.789,1709L432.789,1713.167C432.789,1717.333,432.789,1725.667,432.789,1733.117C432.789,1740.567,432.789,1747.133,432.789,1750.417L432.789,1753.7"/><path marker-end="url(#mermaid-1753115849439_flowchart-pointEnd)" style="fill:none;" class="edge-thickness-normal edge-pattern-solid flowchart-link LS-P LE-Q" id="L-P-Q-0" d="M432.789,1811.5L432.789,1815.667C432.789,1819.833,432.789,1828.167,432.789,1835.617C432.789,1843.067,432.789,1849.633,432.789,1852.917L432.789,1856.2"/><path marker-end="url(#mermaid-1753115849439_flowchart-pointEnd)" style="fill:none;" class="edge-thickness-normal edge-pattern-solid flowchart-link LS-Q LE-R" id="L-Q-R-0" d="M432.789,1895L432.789,1899.167C432.789,1903.333,432.789,1911.667,432.789,1919.117C432.789,1926.567,432.789,1933.133,432.789,1936.417L432.789,1939.7"/><path marker-end="url(#mermaid-1753115849439_flowchart-pointEnd)" style="fill:none;" class="edge-thickness-normal edge-pattern-solid flowchart-link LS-R LE-S" id="L-R-S-0" d="M432.789,1997.5L432.789,2001.667C432.789,2005.833,432.789,2014.167,432.789,2021.617C432.789,2029.067,432.789,2035.633,432.789,2038.917L432.789,2042.2"/><path marker-end="url(#mermaid-1753115849439_flowchart-pointEnd)" style="fill:none;" class="edge-thickness-normal edge-pattern-solid flowchart-link LS-S LE-T" id="L-S-T-0" d="M432.789,2081L432.789,2085.167C432.789,2089.333,432.789,2097.667,432.789,2105.117C432.789,2112.567,432.789,2119.133,432.789,2122.417L432.789,2125.7"/><path marker-end="url(#mermaid-1753115849439_flowchart-pointEnd)" style="fill:none;" class="edge-thickness-normal edge-pattern-solid flowchart-link LS-T LE-U" id="L-T-U-0" d="M432.789,2183.5L432.789,2187.667C432.789,2191.833,432.789,2200.167,453.987,2209.67C475.186,2219.173,517.583,2229.846,538.781,2235.183L559.979,2240.519"/><path marker-end="url(#mermaid-1753115849439_flowchart-pointEnd)" style="fill:none;" class="edge-thickness-normal edge-pattern-solid flowchart-link LS-U LE-V" id="L-U-V-0" d="M711.596,2248.634L753.769,2241.945C795.941,2235.256,880.287,2221.878,922.46,2206.647C964.633,2191.417,964.633,2174.333,964.633,2157.25C964.633,2140.167,964.633,2123.083,964.633,2107.583C964.633,2092.083,964.633,2078.167,964.633,2064.25C964.633,2050.333,964.633,2036.417,964.633,2020.917C964.633,2005.417,964.633,1988.333,964.633,1971.25C964.633,1954.167,964.633,1937.083,964.633,1921.583C964.633,1906.083,964.633,1892.167,964.633,1878.25C964.633,1864.333,964.633,1850.417,964.633,1834.917C964.633,1819.417,964.633,1802.333,964.633,1785.25C964.633,1768.167,964.633,1751.083,964.633,1734.042C964.633,1717,964.633,1700,964.633,1683C964.633,1666,964.633,1649,964.633,1632C964.633,1615,964.633,1598,964.633,1581C964.633,1564,964.633,1547,964.633,1530C964.633,1513,964.633,1496,964.633,1479C964.633,1462,964.633,1445,964.633,1432.333C964.633,1419.667,964.633,1411.333,964.633,1403C964.633,1394.667,964.633,1386.333,964.633,1373.625C964.633,1360.917,964.633,1343.833,964.633,1326.75C964.633,1309.667,964.633,1292.583,964.633,1275.542C964.633,1258.5,964.633,1241.5,964.633,1224.5C964.633,1207.5,964.633,1190.5,964.633,1175.042C964.633,1159.583,964.633,1145.667,964.633,1131.75C964.633,1117.833,964.633,1103.917,964.633,1090C964.633,1076.083,964.633,1062.167,964.633,1048.25C964.633,1034.333,964.633,1020.417,964.633,1009.292C964.633,998.167,964.633,989.833,964.633,977.167C964.633,964.5,964.633,947.5,964.633,930.5C964.633,913.5,964.633,896.5,964.633,879.5C964.633,862.5,964.633,845.5,964.633,828.5C964.633,811.5,964.633,794.5,964.633,777.5C964.633,760.5,964.633,743.5,964.633,726.5C964.633,709.5,964.633,692.5,964.633,675.5C964.633,658.5,964.633,641.5,964.633,624.5C964.633,607.5,964.633,590.5,964.633,577.833C964.633,565.167,964.633,556.833,964.633,544.125C964.633,531.417,964.633,514.333,964.633,497.25C964.633,480.167,964.633,463.083,964.633,450.375C964.633,437.667,964.633,429.333,964.633,421C964.633,412.667,964.633,404.333,964.633,391.667C964.633,379,964.633,362,964.633,345C964.633,328,964.633,311,964.633,298.333C964.633,285.667,964.633,277.333,964.633,266.208C964.633,255.083,964.633,241.167,964.633,227.25C964.633,213.333,964.633,199.417,964.633,183.958C964.633,168.5,964.633,151.5,964.633,134.5C964.633,117.5,964.633,100.5,951.514,88.025C938.395,75.55,912.158,67.6,899.039,63.624L885.92,59.649"/><path marker-end="url(#mermaid-1753115849439_flowchart-pointEnd)" style="fill:none;" class="edge-thickness-normal edge-pattern-solid flowchart-link LS-V LE-W" id="L-V-W-0" d="M772.848,56.319L756.057,60.849C739.266,65.379,705.684,74.44,688.893,82.253C672.102,90.067,672.102,96.633,672.102,99.917L672.102,103.2"/><path marker-end="url(#mermaid-1753115849439_flowchart-pointEnd)" style="fill:none;" class="edge-thickness-normal edge-pattern-solid flowchart-link LS-W LE-X" id="L-W-X-0" d="M672.102,160.5L672.102,164.667C672.102,168.833,672.102,177.167,672.102,184.617C672.102,192.067,672.102,198.633,672.102,201.917L672.102,205.2"/><path marker-end="url(#mermaid-1753115849439_flowchart-pointEnd)" style="fill:none;" class="edge-thickness-normal edge-pattern-solid flowchart-link LS-X LE-Y" id="L-X-Y-0" d="M672.102,244L672.102,248.167C672.102,252.333,672.102,260.667,672.102,269C672.102,277.333,672.102,285.667,672.102,294.658C672.102,303.65,672.102,313.3,672.102,318.125L672.102,322.95"/><path marker-end="url(#mermaid-1753115849439_flowchart-pointEnd)" style="fill:none;stroke-width:2px;stroke-dasharray:3;" class="edge-thickness-normal edge-pattern-dotted flowchart-link LS-Y LE-D" id="L-Y-D-0" d="M672.102,361.75L672.102,367.458C672.102,373.167,672.102,384.583,672.102,394.458C672.102,404.333,672.102,412.667,672.102,421C672.102,429.333,672.102,437.667,641.905,447.267C611.709,456.867,551.316,467.734,521.12,473.168L490.923,478.601"/></g><g class="edgeLabels"><g class="edgeLabel"><g transform="translate(0, 0)" class="label"><foreignObject height="0" width="0"><div style="display: inline-block; white-space: nowrap;" xmlns="http://www.w3.org/1999/xhtml"><span class="edgeLabel"></span></div></foreignObject></g></g><g class="edgeLabel"><g transform="translate(0, 0)" class="label"><foreignObject height="0" width="0"><div style="display: inline-block; white-space: nowrap;" xmlns="http://www.w3.org/1999/xhtml"><span class="edgeLabel"></span></div></foreignObject></g></g><g class="edgeLabel"><g transform="translate(0, 0)" class="label"><foreignObject height="0" width="0"><div style="display: inline-block; white-space: nowrap;" xmlns="http://www.w3.org/1999/xhtml"><span class="edgeLabel"></span></div></foreignObject></g></g><g class="edgeLabel"><g transform="translate(0, 0)" class="label"><foreignObject height="0" width="0"><div style="display: inline-block; white-space: nowrap;" xmlns="http://www.w3.org/1999/xhtml"><span class="edgeLabel"></span></div></foreignObject></g></g><g class="edgeLabel"><g transform="translate(0, 0)" class="label"><foreignObject height="0" width="0"><div style="display: inline-block; white-space: nowrap;" xmlns="http://www.w3.org/1999/xhtml"><span class="edgeLabel"></span></div></foreignObject></g></g><g class="edgeLabel"><g transform="translate(0, 0)" class="label"><foreignObject height="0" width="0"><div style="display: inline-block; white-space: nowrap;" xmlns="http://www.w3.org/1999/xhtml"><span class="edgeLabel"></span></div></foreignObject></g></g><g class="edgeLabel"><g transform="translate(0, 0)" class="label"><foreignObject height="0" width="0"><div style="display: inline-block; white-space: nowrap;" xmlns="http://www.w3.org/1999/xhtml"><span class="edgeLabel"></span></div></foreignObject></g></g><g class="edgeLabel"><g transform="translate(0, 0)" class="label"><foreignObject height="0" width="0"><div style="display: inline-block; white-space: nowrap;" xmlns="http://www.w3.org/1999/xhtml"><span class="edgeLabel"></span></div></foreignObject></g></g><g class="edgeLabel"><g transform="translate(0, 0)" class="label"><foreignObject height="0" width="0"><div style="display: inline-block; white-space: nowrap;" xmlns="http://www.w3.org/1999/xhtml"><span class="edgeLabel"></span></div></foreignObject></g></g><g class="edgeLabel"><g transform="translate(0, 0)" class="label"><foreignObject height="0" width="0"><div style="display: inline-block; white-space: nowrap;" xmlns="http://www.w3.org/1999/xhtml"><span class="edgeLabel"></span></div></foreignObject></g></g><g class="edgeLabel"><g transform="translate(0, 0)" class="label"><foreignObject height="0" width="0"><div style="display: inline-block; white-space: nowrap;" xmlns="http://www.w3.org/1999/xhtml"><span class="edgeLabel"></span></div></foreignObject></g></g><g class="edgeLabel"><g transform="translate(0, 0)" class="label"><foreignObject height="0" width="0"><div style="display: inline-block; white-space: nowrap;" xmlns="http://www.w3.org/1999/xhtml"><span class="edgeLabel"></span></div></foreignObject></g></g><g class="edgeLabel"><g transform="translate(0, 0)" class="label"><foreignObject height="0" width="0"><div style="display: inline-block; white-space: nowrap;" xmlns="http://www.w3.org/1999/xhtml"><span class="edgeLabel"></span></div></foreignObject></g></g><g class="edgeLabel"><g transform="translate(0, 0)" class="label"><foreignObject height="0" width="0"><div style="display: inline-block; white-space: nowrap;" xmlns="http://www.w3.org/1999/xhtml"><span class="edgeLabel"></span></div></foreignObject></g></g><g class="edgeLabel"><g transform="translate(0, 0)" class="label"><foreignObject height="0" width="0"><div style="display: inline-block; white-space: nowrap;" xmlns="http://www.w3.org/1999/xhtml"><span class="edgeLabel"></span></div></foreignObject></g></g><g class="edgeLabel"><g transform="translate(0, 0)" class="label"><foreignObject height="0" width="0"><div style="display: inline-block; white-space: nowrap;" xmlns="http://www.w3.org/1999/xhtml"><span class="edgeLabel"></span></div></foreignObject></g></g><g class="edgeLabel"><g transform="translate(0, 0)" class="label"><foreignObject height="0" width="0"><div style="display: inline-block; white-space: nowrap;" xmlns="http://www.w3.org/1999/xhtml"><span class="edgeLabel"></span></div></foreignObject></g></g><g class="edgeLabel"><g transform="translate(0, 0)" class="label"><foreignObject height="0" width="0"><div style="display: inline-block; white-space: nowrap;" xmlns="http://www.w3.org/1999/xhtml"><span class="edgeLabel"></span></div></foreignObject></g></g><g class="edgeLabel"><g transform="translate(0, 0)" class="label"><foreignObject height="0" width="0"><div style="display: inline-block; white-space: nowrap;" xmlns="http://www.w3.org/1999/xhtml"><span class="edgeLabel"></span></div></foreignObject></g></g><g class="edgeLabel"><g transform="translate(0, 0)" class="label"><foreignObject height="0" width="0"><div style="display: inline-block; white-space: nowrap;" xmlns="http://www.w3.org/1999/xhtml"><span class="edgeLabel"></span></div></foreignObject></g></g><g class="edgeLabel"><g transform="translate(0, 0)" class="label"><foreignObject height="0" width="0"><div style="display: inline-block; white-space: nowrap;" xmlns="http://www.w3.org/1999/xhtml"><span class="edgeLabel"></span></div></foreignObject></g></g><g class="edgeLabel"><g transform="translate(0, 0)" class="label"><foreignObject height="0" width="0"><div style="display: inline-block; white-space: nowrap;" xmlns="http://www.w3.org/1999/xhtml"><span class="edgeLabel"></span></div></foreignObject></g></g><g class="edgeLabel"><g transform="translate(0, 0)" class="label"><foreignObject height="0" width="0"><div style="display: inline-block; white-space: nowrap;" xmlns="http://www.w3.org/1999/xhtml"><span class="edgeLabel"></span></div></foreignObject></g></g><g class="edgeLabel"><g transform="translate(0, 0)" class="label"><foreignObject height="0" width="0"><div style="display: inline-block; white-space: nowrap;" xmlns="http://www.w3.org/1999/xhtml"><span class="edgeLabel"></span></div></foreignObject></g></g><g class="edgeLabel"><g transform="translate(0, 0)" class="label"><foreignObject height="0" width="0"><div style="display: inline-block; white-space: nowrap;" xmlns="http://www.w3.org/1999/xhtml"><span class="edgeLabel"></span></div></foreignObject></g></g><g class="edgeLabel"><g transform="translate(0, 0)" class="label"><foreignObject height="0" width="0"><div style="display: inline-block; white-space: nowrap;" xmlns="http://www.w3.org/1999/xhtml"><span class="edgeLabel"></span></div></foreignObject></g></g></g><g class="nodes"><g transform="translate(826.84765625, 41.75)" id="flowchart-V-21" class="node default trainClass flowchart-label"><rect height="33.5" width="108" y="-16.75" x="-54" ry="0" rx="0" style="" class="basic label-container"/><g transform="translate(-46.5, -9.25)" style="" class="label"><rect/><foreignObject height="18.5" width="93"><div style="display: inline-block; white-space: nowrap;" xmlns="http://www.w3.org/1999/xhtml"><span class="nodeLabel">Forward Pass</span></div></foreignObject></g></g><g transform="translate(672.1015625, 134.5)" id="flowchart-W-22" class="node default trainClass flowchart-label"><rect height="52" width="130.1796875" y="-26" x="-65.08984375" ry="0" rx="0" style="" class="basic label-container"/><g transform="translate(-57.58984375, -18.5)" style="" class="label"><rect/><foreignObject height="37" width="115.1796875"><div style="display: inline-block; white-space: nowrap;" xmlns="http://www.w3.org/1999/xhtml"><span class="nodeLabel">Loss Calculation<br />BCELoss</span></div></foreignObject></g></g><g transform="translate(672.1015625, 227.25)" id="flowchart-X-23" class="node default trainClass flowchart-label"><rect height="33.5" width="134.1640625" y="-16.75" x="-67.08203125" ry="0" rx="0" style="" class="basic label-container"/><g transform="translate(-59.58203125, -9.25)" style="" class="label"><rect/><foreignObject height="18.5" width="119.1640625"><div style="display: inline-block; white-space: nowrap;" xmlns="http://www.w3.org/1999/xhtml"><span class="nodeLabel">Backpropagation</span></div></foreignObject></g></g><g transform="translate(672.1015625, 345)" id="flowchart-Y-24" class="node default trainClass flowchart-label"><rect height="33.5" width="146" y="-16.75" x="-73" ry="0" rx="0" style="" class="basic label-container"/><g transform="translate(-65.5, -9.25)" style="" class="label"><rect/><foreignObject height="18.5" width="131"><div style="display: inline-block; white-space: nowrap;" xmlns="http://www.w3.org/1999/xhtml"><span class="nodeLabel">Parameter Update</span></div></foreignObject></g></g><g transform="translate(432.7890625, 1479)" id="flowchart-M-12" class="node default edgeClass flowchart-label"><rect height="52" width="183.65625" y="-26" x="-91.828125" ry="0" rx="0" style="" class="basic label-container"/><g transform="translate(-84.328125, -18.5)" style="" class="label"><rect/><foreignObject height="37" width="168.65625"><div style="display: inline-block; white-space: nowrap;" xmlns="http://www.w3.org/1999/xhtml"><span class="nodeLabel">Node Embeddings<br />Shape: (N, output_dim)</span></div></foreignObject></g></g><g transform="translate(432.7890625, 1581)" id="flowchart-N-13" class="node default edgeClass flowchart-label"><rect height="52" width="179.46875" y="-26" x="-89.734375" ry="0" rx="0" style="" class="basic label-container"/><g transform="translate(-82.234375, -18.5)" style="" class="label"><rect/><foreignObject height="37" width="164.46875"><div style="display: inline-block; white-space: nowrap;" xmlns="http://www.w3.org/1999/xhtml"><span class="nodeLabel">Edge Pairs<br />(src_nodes, dst_nodes)</span></div></foreignObject></g></g><g transform="translate(432.7890625, 1683)" id="flowchart-O-14" class="node default edgeClass flowchart-label"><rect height="52" width="105.515625" y="-26" x="-52.7578125" ry="0" rx="0" style="" class="basic label-container"/><g transform="translate(-45.2578125, -18.5)" style="" class="label"><rect/><foreignObject height="37" width="90.515625"><div style="display: inline-block; white-space: nowrap;" xmlns="http://www.w3.org/1999/xhtml"><span class="nodeLabel">Concatenate<br />zi || zj</span></div></foreignObject></g></g><g transform="translate(432.7890625, 1785.25)" id="flowchart-P-15" class="node default edgeClass flowchart-label"><rect height="52.5" width="108.421875" y="-26.25" x="-54.2109375" ry="0" rx="0" style="" class="basic label-container"/><g transform="translate(-46.7109375, -18.75)" style="" class="label"><rect/><foreignObject height="37.5" width="93.421875"><div style="display: inline-block; white-space: nowrap;" xmlns="http://www.w3.org/1999/xhtml"><span class="nodeLabel">MLP Layer 1<br />2*dim → dim</span></div></foreignObject></g></g><g transform="translate(432.7890625, 1878.25)" id="flowchart-Q-16" class="node default edgeClass flowchart-label"><rect height="33.5" width="126.1015625" y="-16.75" x="-63.05078125" ry="0" rx="0" style="" class="basic label-container"/><g transform="translate(-55.55078125, -9.25)" style="" class="label"><rect/><foreignObject height="18.5" width="111.1015625"><div style="display: inline-block; white-space: nowrap;" xmlns="http://www.w3.org/1999/xhtml"><span class="nodeLabel">ReLU + Dropout</span></div></foreignObject></g></g><g transform="translate(432.7890625, 1971.25)" id="flowchart-R-17" class="node default edgeClass flowchart-label"><rect height="52.5" width="110.9375" y="-26.25" x="-55.46875" ry="0" rx="0" style="" class="basic label-container"/><g transform="translate(-47.96875, -18.75)" style="" class="label"><rect/><foreignObject height="37.5" width="95.9375"><div style="display: inline-block; white-space: nowrap;" xmlns="http://www.w3.org/1999/xhtml"><span class="nodeLabel">MLP Layer 2<br />dim → dim/2</span></div></foreignObject></g></g><g transform="translate(432.7890625, 2064.25)" id="flowchart-S-18" class="node default edgeClass flowchart-label"><rect height="33.5" width="50.8671875" y="-16.75" x="-25.43359375" ry="0" rx="0" style="" class="basic label-container"/><g transform="translate(-17.93359375, -9.25)" style="" class="label"><rect/><foreignObject height="18.5" width="35.8671875"><div style="display: inline-block; white-space: nowrap;" xmlns="http://www.w3.org/1999/xhtml"><span class="nodeLabel">ReLU</span></div></foreignObject></g></g><g transform="translate(432.7890625, 2157.25)" id="flowchart-T-19" class="node default edgeClass flowchart-label"><rect height="52.5" width="100.4609375" y="-26.25" x="-50.23046875" ry="0" rx="0" style="" class="basic label-container"/><g transform="translate(-42.73046875, -18.75)" style="" class="label"><rect/><foreignObject height="37.5" width="85.4609375"><div style="display: inline-block; white-space: nowrap;" xmlns="http://www.w3.org/1999/xhtml"><span class="nodeLabel">MLP Layer 3<br />dim/2 → 1</span></div></foreignObject></g></g><g transform="translate(638.357421875, 2260.25)" id="flowchart-U-20" class="node default edgeClass flowchart-label"><rect height="53.5" width="146.4765625" y="-26.75" x="-73.23828125" ry="0" rx="0" style="" class="basic label-container"/><g transform="translate(-65.73828125, -19.25)" style="" class="label"><rect/><foreignObject height="38.5" width="131.4765625"><div style="display: inline-block; white-space: nowrap;" xmlns="http://www.w3.org/1999/xhtml"><span class="nodeLabel">Sigmoid<br />Edge Score ∈ (0,1)</span></div></foreignObject></g></g><g transform="translate(828.3671875, 624.5)" id="flowchart-I-8" class="node default detailClass flowchart-label"><rect height="52" width="142.03125" y="-26" x="-71.015625" ry="0" rx="0" style="" class="basic label-container"/><g transform="translate(-63.515625, -18.5)" style="" class="label"><rect/><foreignObject height="37" width="127.03125"><div style="display: inline-block; white-space: nowrap;" xmlns="http://www.w3.org/1999/xhtml"><span class="nodeLabel">Sample Neighbors<br />for each node</span></div></foreignObject></g></g><g transform="translate(828.3671875, 726.5)" id="flowchart-J-9" class="node default detailClass flowchart-label"><rect height="52" width="153.8125" y="-26" x="-76.90625" ry="0" rx="0" style="" class="basic label-container"/><g transform="translate(-69.40625, -18.5)" style="" class="label"><rect/><foreignObject height="37" width="138.8125"><div style="display: inline-block; white-space: nowrap;" xmlns="http://www.w3.org/1999/xhtml"><span class="nodeLabel">Aggregate Function<br />MEAN aggregation</span></div></foreignObject></g></g><g transform="translate(828.3671875, 828.5)" id="flowchart-K-10" class="node default detailClass flowchart-label"><rect height="52" width="127.8671875" y="-26" x="-63.93359375" ry="0" rx="0" style="" class="basic label-container"/><g transform="translate(-56.43359375, -18.5)" style="" class="label"><rect/><foreignObject height="37" width="112.8671875"><div style="display: inline-block; white-space: nowrap;" xmlns="http://www.w3.org/1999/xhtml"><span class="nodeLabel">Concatenate<br />self + neighbors</span></div></foreignObject></g></g><g transform="translate(828.3671875, 930.5)" id="flowchart-L-11" class="node default detailClass flowchart-label"><rect height="52" width="162.53125" y="-26" x="-81.265625" ry="0" rx="0" style="" class="basic label-container"/><g transform="translate(-73.765625, -18.5)" style="" class="label"><rect/><foreignObject height="37" width="147.53125"><div style="display: inline-block; white-space: nowrap;" xmlns="http://www.w3.org/1999/xhtml"><span class="nodeLabel">Linear Transform<br />W × concat_features</span></div></foreignObject></g></g><g transform="translate(387.28515625, 497.25)" id="flowchart-D-3" class="node default sageClass flowchart-label"><rect height="52.5" width="196.84375" y="-26.25" x="-98.421875" ry="0" rx="0" style="" class="basic label-container"/><g transform="translate(-90.921875, -18.75)" style="" class="label"><rect/><foreignObject height="37.5" width="181.84375"><div style="display: inline-block; white-space: nowrap;" xmlns="http://www.w3.org/1999/xhtml"><span class="nodeLabel">SAGEConv Layer 1<br />input_dim → hidden_dim</span></div></foreignObject></g></g><g transform="translate(432.7890625, 1048.25)" id="flowchart-E-4" class="node default sageClass flowchart-label"><rect height="33.5" width="111.0703125" y="-16.75" x="-55.53515625" ry="0" rx="0" style="" class="basic label-container"/><g transform="translate(-48.03515625, -9.25)" style="" class="label"><rect/><foreignObject height="18.5" width="96.0703125"><div style="display: inline-block; white-space: nowrap;" xmlns="http://www.w3.org/1999/xhtml"><span class="nodeLabel">BatchNorm1d</span></div></foreignObject></g></g><g transform="translate(432.7890625, 1131.75)" id="flowchart-F-5" class="node default sageClass flowchart-label"><rect height="33.5" width="127.546875" y="-16.75" x="-63.7734375" ry="0" rx="0" style="" class="basic label-container"/><g transform="translate(-56.2734375, -9.25)" style="" class="label"><rect/><foreignObject height="18.5" width="112.546875"><div style="display: inline-block; white-space: nowrap;" xmlns="http://www.w3.org/1999/xhtml"><span class="nodeLabel">ReLU Activation</span></div></foreignObject></g></g><g transform="translate(432.7890625, 1224.5)" id="flowchart-G-6" class="node default sageClass flowchart-label"><rect height="52" width="72.203125" y="-26" x="-36.1015625" ry="0" rx="0" style="" class="basic label-container"/><g transform="translate(-28.6015625, -18.5)" style="" class="label"><rect/><foreignObject height="37" width="57.203125"><div style="display: inline-block; white-space: nowrap;" xmlns="http://www.w3.org/1999/xhtml"><span class="nodeLabel">Dropout<br />p=0.2</span></div></foreignObject></g></g><g transform="translate(432.7890625, 1326.75)" id="flowchart-H-7" class="node default sageClass flowchart-label"><rect height="52.5" width="207.2109375" y="-26.25" x="-103.60546875" ry="0" rx="0" style="" class="basic label-container"/><g transform="translate(-96.10546875, -18.75)" style="" class="label"><rect/><foreignObject height="37.5" width="192.2109375"><div style="display: inline-block; white-space: nowrap;" xmlns="http://www.w3.org/1999/xhtml"><span class="nodeLabel">SAGEConv Layer 2<br />hidden_dim → output_dim</span></div></foreignObject></g></g><g transform="translate(121.64453125, 345)" id="flowchart-A-0" class="node default inputClass flowchart-label"><rect height="52" width="173.2890625" y="-26" x="-86.64453125" ry="0" rx="0" style="" class="basic label-container"/><g transform="translate(-79.14453125, -18.5)" style="" class="label"><rect/><foreignObject height="37" width="158.2890625"><div style="display: inline-block; white-space: nowrap;" xmlns="http://www.w3.org/1999/xhtml"><span class="nodeLabel">Node Features X<br />Shape: (N, input_dim)</span></div></foreignObject></g></g><g transform="translate(312.08203125, 345)" id="flowchart-B-1" class="node default inputClass flowchart-label"><rect height="52" width="107.5859375" y="-26" x="-53.79296875" ry="0" rx="0" style="" class="basic label-container"/><g transform="translate(-46.29296875, -18.5)" style="" class="label"><rect/><foreignObject height="37" width="92.5859375"><div style="display: inline-block; white-space: nowrap;" xmlns="http://www.w3.org/1999/xhtml"><span class="nodeLabel">Edge Index<br />Shape: (2, E)</span></div></foreignObject></g></g><g transform="translate(462.48828125, 345)" id="flowchart-C-2" class="node default inputClass flowchart-label"><rect height="52" width="93.2265625" y="-26" x="-46.61328125" ry="0" rx="0" style="" class="basic label-container"/><g transform="translate(-39.11328125, -18.5)" style="" class="label"><rect/><foreignObject height="37" width="78.2265625"><div style="display: inline-block; white-space: nowrap;" xmlns="http://www.w3.org/1999/xhtml"><span class="nodeLabel">Edge Types<br />Optional</span></div></foreignObject></g></g></g></g></g></svg>